<svg xmlns="http://www.w3.org/2000/svg" width="586.667" height="586.667" version="1.0" viewBox="0 0 440 440"><path d="M189 1.6C142.2 8.2 97.9 30.3 64 64 30.9 96.8 9 140.3 1.5 188c-2.1 13.1-2 49.6.1 63.9 9.9 67.6 49.7 125.8 109.4 160 20.3 11.7 40 19 66 24.8 10 2.2 14.8 2.6 35.7 3 26.5.6 36.9-.2 55.1-4.3 56-12.5 103.8-45.3 135.8-93.1 8.8-13.2 21.1-38.2 25.7-52.3 8.2-25.6 10.7-41.7 10.7-69.2 0-35.1-5.4-61.2-18.8-91.5-14.1-31.6-37.6-61.5-65.2-83-26.7-20.7-59.1-35.6-93-42.9-11.3-2.3-15-2.6-38-3-18.8-.2-28.3.1-36 1.2zm68.5 21.7c17.7 3.7 35.8 9.9 50.8 17.5 22.2 11.3 36 21.4 53.5 39 29.1 29.3 47.7 65.8 55.4 109.2 2 11.6 1.8 52.9-.5 65-3.9 21.6-9.7 39-18.7 56.5-10.6 20.7-20.4 34.3-36.3 50.4-23.4 23.7-50.1 40.3-81.2 50.4-18.2 6-34.3 8.6-56.5 9.4-14.7.5-19.8.2-32-1.6-45.5-6.6-82-24.5-113.4-55.4-12-11.9-16.9-17.7-25.9-30.7C15 278 7.5 205.9 33.2 144c11.3-27.3 25.9-48.4 48.2-69.7 29.2-27.9 66.3-46 107.7-52.7 7-1.1 15.4-1.4 32.9-1.1 20.3.3 25.1.6 35.5 2.8z"/><path d="M197 28.6c-1.4.3-6.6 1.1-11.6 1.9-51.8 8.4-101.7 42.1-130.1 87.8-31.8 51.4-38 112-17.1 169.1 5.1 13.9 15 33.4 21 41.1.5.5 2.9 3.9 5.5 7.5 5.7 8 22.2 25.1 32.3 33.5 56.3 46.9 138.8 56.8 205 24.6 21-10.3 36.6-21.5 53.5-38.5 36.6-36.7 55.9-83.9 55.7-135.6-.2-56.8-23.6-108-66.4-145.2-26.2-22.7-55.8-37-92.3-44.4-7.7-1.6-49.1-2.9-55.5-1.8zm47 128.8c8 0 16.6-.4 19.2-.8l4.7-.7 6 12.3c7.2 14.7 10.5 26.5 9.8 35.3-.5 7.5-2.4 11.1-8.2 16.6-4.8 4.5-6.3 5.5-17 11.4-10.2 5.6-10.4 5.7-11.6 9-1.5 4.2-2.2 26.5-1.2 41.5l.8 12.5 10.5.3c5.8.1 10.9.7 11.4 1.2.7.7-8.4 1-25.3 1-17.2 0-26-.3-25.6-1 .3-.6 5.2-1 11-1 10.2 0 10.5-.1 11.1-2.4 1.2-5 .9-48-.4-51.7-1.3-3.6-1.8-4-15.7-12.1-9.1-5.3-15.9-11.9-18.6-18.2-1.8-4.3-2.1-6.2-1.6-12.2.8-9.1 4.6-21.2 10.5-33.1l4.6-9.4 5.5.7c3.1.4 12.1.8 20.1.8zm-145.5 4.5c2.9 1.6 7.4 8.3 7.5 10.8 0 1.2-6.9 5.3-8.8 5.3-.5 0-1.4-1.1-2-2.5-1.6-3.5-5.2-4.8-7.5-2.7-1.9 1.7-1.9 4.5-.2 8.7.8 1.7.7 1.8-.7.7-3.9-3.2-2.6-10.2 2.2-11.7 2.5-.8 6.6 1.6 7.5 4.4.6 1.9.7 1.9 4.1.4 4-1.9 4.2-3.3 1.3-8-4-6.4-12.7-8.2-19.9-4.2-4.9 2.8-7 6.6-7 12.9 0 4.5.4 5.6 3.3 8.5 2.6 2.6 4.9 3.6 10.8 4.9 4.2 1 9 2.6 10.8 3.7 9.5 5.8 9.5 20.3-.1 26.7-3.2 2.1-5.2 2.6-10.1 2.6-9.6-.1-13.9-3.1-17.2-12.3l-1.3-3.8 4.4-2.1c5.8-2.9 6.1-2.8 7.8 1.2 1.8 4.3 4.8 6.1 7.6 4.6 3.1-1.7 3.6-5.7 1.1-9.1-2.4-3.3-1.4-4 1.4-.9 3.8 4.2.9 12-4.5 12-2.6 0-6.7-3.6-7.4-6.5L81 203l-4 2c-3.6 1.8-3.8 2.2-3 4.9 2.1 7.6 7.3 11.4 15.5 11.4 9.7 0 15.7-5.6 15.9-14.7.1-8.8-3.6-12.6-15.1-15.5-12-3.1-15.8-6.1-17-13.4-2.1-12.9 13.4-22.6 25.2-15.8zm46.3-1.2c.5 1 2 6.3 3.2 11.8 1.2 5.5 4.2 18.1 6.6 28 2.4 9.9 4.6 19 4.9 20.3.5 2.2.4 2.3-6.2 2l-6.8-.3-.8-5.5c-1.1-6.4-1.9-7.7-5.5-8.3-1.6-.3-1-.4 1.2-.3 4.3.1 4.4.3 6 9.8.7 3.7.8 3.8 5.1 3.8 2.4 0 4.6-.4 4.9-.8.3-.5-1.9-10.7-4.8-22.8-3-12-6.2-25.4-7.1-29.7l-1.7-7.7h-4.9c-2.7 0-5.2-.1-5.6-.3-.8-.3-1.5 1.9-4.8 16.3-1.5 6.3-4.4 18.7-6.6 27.5-2.8 11.9-3.5 16.1-2.6 16.7 1.7 1.1 7.5 1 8.2-.2.3-.5 1.5-5.4 2.5-10.7 2.1-10.7 3.2-12.3 8.8-12.3 2.7 0 3.2-.3 2.8-1.8-.2-.9-1-5.2-1.7-9.5-.6-4.2-1.5-7.7-1.9-7.7-.4 0-1.1 2.1-1.5 4.6-1 7.1-2.7 10.1-2.1 3.9.7-7 2.6-15.5 3.6-15.5.4 0 1.8 5.3 3 11.7 1.2 6.5 2.4 12.6 2.6 13.5.4 1.5-.1 1.8-3.3 1.8-5.9 0-6.9 1.4-8.8 12-.9 5.2-1.9 10.1-2.1 10.7-.2.9-2.5 1.3-6.9 1.3-3.6 0-6.5-.2-6.5-.4 0-.5 3.7-16.1 9.1-38.3 2.1-9 3.9-16.7 3.9-17.3 0-.6.7-2.6 1.4-4.5 1.5-3.4 1.6-3.5 7.5-3.5 4.7 0 6.2.4 6.9 1.7zm35.3 9.3c1 16.5 1 31.4-.1 33-.6 1-1-5.8-1-20.3V161h-10l.2 24.2.3 24.3 11.5.6 11.5.5-11.7.2c-10.7.2-11.8 0-12.8-1.7-1.1-2.1-1.5-48.3-.4-49.3.3-.4 3.1-.6 6.2-.5l5.7.2.6 10.5zm139.7-4.3c.3 6 .2 6.3-2 6.2-1.3 0-1.7-.3-1-.6s1.2-2.4 1.2-5.4V161h-29.1l.3 4.7.3 4.8 9.2.3c6.1.2 9.5.7 10.2 1.6.9 1.1 1.6 29.2 1.1 48.9 0 1.6-.8 1.8-6.2 1.5l-6.3-.3-.3-21.8c-.1-14.2.1-21.7.8-21.7.6 0 1 7.6 1 21.6v21.5l4.8-.3 4.7-.3.3-23.4c.2-16.4-.1-23.8-.9-24.7-.8-1-3.8-1.4-10.5-1.4H288v-5.8c0-3.2.3-6.2.7-6.6.4-.4 7.5-.6 15.8-.4l15 .3.3 6.2zm40.7-.3c0 5.4-.2 5.9-2.2 6.2-1.3.2-2.3-.1-2.3-.6 0-.6.7-1 1.5-1 1.1 0 1.5-1.2 1.5-4.5V161h-29l-.2 15.2-.2 15.3-.3-15c-.2-8.2-.1-15.5.1-16.1.3-.9 4.6-1.2 15.8-1.1l15.3.2v5.9zM345 171c0 .5-.6.9-1.2.7-.9-.1-1.3 1.6-1.3 6.3v6.5l6.8.3 6.7.3V196h-10c-15.6 0-16.4.8-15.8 17l.3 8.5h28l.3-4.8.3-4.7H341l.1-4.8.2-4.7.6 4 .6 4 7.5.2c4.1.1 8.3.2 9.3.2 1.6.1 1.8.9 1.5 5.8l-.3 5.8-15.7.3-15.8.3v-11.8c0-6.5.4-12.3.8-12.9 1.6-2.5 5.6-3.4 15.1-3.4H355v-9h-14v-7.3c0-4.1.3-7.7.7-8 1-1.1 3.3-.8 3.3.3zm10 0c0 .5-2.1.9-4.7.8l-4.8-.1 4.5-.7c2.5-.4 4.6-.8 4.8-.8.1-.1.2.2.2.8zm-160.2 45.2-.3 6.3-13.4.3c-7.4.1-13.2 0-12.8-.4.3-.3 6-.6 12.6-.5l12.1.2v-6c0-3.6.4-6.1 1-6.1.7 0 1 2.4.8 6.2zm5.1 28.3c4.6 2.3 6.6 7.7 6.6 17.5s-2.7 16.8-7.1 18.8c-3.1 1.5-15.8 1.6-14.9.2.3-.6 3.4-1 6.9-1 5.5 0 6.5-.3 8.8-2.8 4.7-4.9 6-14.6 3.3-23.8-1.8-6.3-5.1-8.4-12.9-8.4H185v12.9c0 7.1.3 13.6.6 14.5.7 1.8 6.9 2.2 9.3.7 1.7-1.1 2.7-12 1.7-17.6-.5-2.6-1.2-3.5-2.6-3.5-1.9 0-2 .7-2 9.7 0 6.7-.3 9.4-1 8.7-.7-.7-1-5.1-.8-11 .3-9.3.4-9.9 2.5-10.2 1.2-.2 3.1.6 4.2 1.7 1.8 1.8 2.1 3.3 2.1 11.6 0 11.3-1.3 13.5-8.1 13.5-7.9 0-7.9-.1-7.9-17.5V243h7c4.3 0 8.2.6 9.9 1.5zm28.2-.5c4.7 2.6 6.6 14.3 3.2 20.1-1.6 2.7-1.6 3.2.5 9.7 1.2 3.8 2.2 7.2 2.2 7.6 0 .4-2.1.6-4.7.4l-4.7-.3-1.7-5.5c-1.7-5.6-2.1-5.1-2.8 4.8-.1.9-1.4 1.2-4.3 1l-4.3-.3-.3-9.4c-.2-6 .1-9.8.9-10.7.7-.8 3-1.4 5.5-1.4 3.8 0 4.6-.4 5.6-2.6.9-1.8.9-3 .1-4.2-1.4-2.3-2.7-1.8-3.1 1.3-.5 3.6-2.2 2.1-2.2-2 0-3.8 1.7-4.9 5.1-3.1 2 1 2.4 1.9 2.3 6 0 5.5-1.1 6.6-7 6.6-2.4 0-4.4.5-4.7 1.3-.2.6-.4 4.6-.3 8.7.1 7 .3 7.5 2.4 7.8 2.1.3 2.2 0 2.2-6.3 0-5.2.3-6.7 1.6-7.2 2.3-.9 4.1 1.9 5.4 8.3 1 4.7 1.4 5.4 3.6 5.4 2.9 0 2.9-.8.5-8-1.8-5.4-1.8-5.6 0-8.6 2.7-4.4 2.6-12.3-.2-15.8-2-2.5-2.6-2.7-8.8-2.4l-6.6.3-.3 6.2c-.2 3.5-.7 6.3-1.2 6.3-1.1 0-1.4-13.3-.3-14.3 1-1.1 14.2-.8 16.4.3zm38.1.7c.8 1 2.9 4.3 4.5 7.3 5.5 10.1 9.5 17 9.9 17 .2 0 .4-5.4.4-12v-12h-2.5c-2.2 0-2.5.4-2.5 3.4 0 1.9-.4 3.8-1 4.1-.6.4-1-1.3-1-4.4V243h9v16.5c0 9.1-.4 16.5-.8 16.5-.5 0-4.6-6.9-9.3-15.3-7.8-14.2-8.6-15.2-11.5-15.5-4.1-.4-4.3.5-3.8 19.3.4 14.8.4 15 2.6 15s2.3-.3 2.6-11.3c.2-7.4.6-11.2 1.3-11 .6.2 3.7 5.3 6.8 11.3 4.9 9.4 6.2 11 8.4 11.3 3.4.4 3.5 2.2.2 2.2-3.2 0-4.8-1.8-9.9-11l-4.1-7.5-.5 9-.5 9-4.2.3-4.2.3-.3-17.3c-.4-22.9-.6-21.8 4.6-21.8 2.8 0 4.8.6 5.8 1.7zm30.2-.1c.3.9.6 5.7.6 10.7 0 9.1 0 9.2 4.7 16.9 3.7 6.1 5.2 7.8 7 7.8 1.3 0 2.3-.3 2.3-.7 0-.3-2.7-5-6-10.4-3.6-5.9-6-10.9-6-12.6 0-1.5 1.5-5.1 3.3-7.8 2.9-4.6 3.6-5 7.5-5.3 3.1-.2 4.2.1 4.2 1.1 0 1.9-7.1 14.7-8.2 14.7-1.4 0-.9-1.8 2.2-7 3.6-6.1 3.7-7.2.8-6.8-2.9.4-8.2 9-7.4 12.1.3 1.2 3.2 6.7 6.6 12.2 3.3 5.5 6 10.6 6 11.2 0 .9-1.5 1.3-4.4 1.3-4.2 0-4.4-.1-8.9-6.9-5.5-8.3-6.7-12.2-6.7-22.4 0-6.9-.2-7.7-1.9-7.7-1 0-2.1.6-2.4 1.4-.3.8-.5 8.5-.4 17.3.2 15.6.2 15.8 2.5 16.1 1.6.3 2.2-.2 2.3-1.7.2-3.7.4-4.1 1.4-4.4 1.3-.3 1.8 2.8 1.1 5.9-.6 2.2-1.1 2.5-4.9 2.2l-4.2-.3-.3-18c-.1-9.8 0-18.5.2-19.2.8-1.9 8.2-1.7 9 .3zm41.7 1.4c3.7 3.7 3.6 7-.3 8.4-2.3.8-3.1.6-4.2-.9-2-2.7-4.5-1.3-3.9 2.2.5 2.6.4 2.7-1.2 1.1-3.9-3.7 1.4-10 5.4-6.4 2.1 1.9 5.1 2.1 5.1.4 0-.6-1-2.2-2.2-3.5-4.7-5-14.1-1.2-14.1 5.7 0 4.1 2.5 6.3 9.8 8.4 8.6 2.6 11.7 8.5 8 15.6-2 3.8-4.3 5-10 5-3.8 0-5.2-.5-7.6-3-3.9-3.9-3.7-8 .4-9.5 2.5-.8 3.1-.6 4.7 1.4 1.1 1.6 2.3 2.2 3.4 1.8 1.9-.7 2.1-2.8.4-4.5-1.7-1.7-.2-2.8 1.7-1.2 3.5 2.9.4 9.7-3.9 8.4-1.1-.3-2.7-1.4-3.4-2.4-1.5-2.1-4.2-1.6-4.2.7 0 .7 1.1 2.5 2.5 3.8 5.2 5.3 15.5 1.8 15.5-5.2 0-4.5-2.6-7.1-8.6-8.9-7.9-2.3-10.7-5-10.7-10.4 0-3.6.6-4.8 3.2-7.2 4.5-4 10.1-3.9 14.2.2z"/><path d="m213 195.9-5.5.6v6c.1 4.9.6 6.8 2.9 10.3 2.7 3.9 11.8 10.7 19.1 14.2 1.7.8 4.4 2.5 6.1 3.7 3.6 2.6 10.8 3.1 13.3.9.9-.7 5.1-3.2 9.4-5.5 15.9-8.3 21.1-14 22-24.3.4-4 .2-4.7-1.7-5.3-2.8-.9-58.6-1.5-65.6-.6z"/></svg>